<svg version="1" xmlns="http://www.w3.org/2000/svg" width="497.333" height="497.333" viewBox="0 0 373 373"><path d="M162.5.6c-6.7 1.4-11.9 3.1-19 5.9-4.4 1.8-10.2 3.9-13 4.7l-5 1.4.3 4.1c.3 3.4 0 4.2-1.6 4.7-1.1.4-2.3 1.3-2.6 2.1-.3.9-1.9 1.5-3.9 1.5-2.5 0-4.2.9-7.1 3.9-2.7 2.8-3.4 4.1-2.5 4.6.9.6.7 1.1-.6 2.2-1.1.7-2.5 1.3-3.3 1.3-2.3 0-10.2 6.9-10.2 8.9 0 2.3-2.6 7.5-4.6 9.2-2.5 2.1-5.2 8.1-9.3 21.1-4.6 14.6-9.1 36.8-9.1 45 0 3.6-.5 6-3.6 19.3-3.1 12.9-3.3 33.6-.2 28.2.5-1 .9-3.5.7-5.5-.1-2-.1-5.1 0-6.7.2-2.7.3-2.8 1.4-1.2.7 1 2.6 3.3 4.3 5.2 3.8 4.2 4.5 7 5.3 20.5.5 9.3.8 10.5 2.4 10.2.9-.2 1.7.2 1.7.8 0 .5.4 1 .8 1s.9-3.3 1-7.3c.2-3.9.9-10.8 1.7-15.2.8-4.4 2.1-13.4 2.9-20 2.5-20.1 8.9-40.5 13.4-42.2.7-.3 1-1.3.7-2.3-.4-1.1.1-2.4 1.2-3.2 2-1.4 4.5-6.2 4.8-9.1.2-2.5 6.5-8.7 9.5-9.4 1.4-.3 3.6-1.3 5-2.2 1.4-.9 4.3-2.3 6.5-3 2.2-.8 6.3-3.1 9.2-5.3 2.9-2.1 5.6-3.8 6.1-3.8s1.5-.6 2.2-1.4c.6-.8 1.8-1.2 2.6-.9.8.3 1.4 0 1.4-.6s1.6-1.1 3.6-1.1c2.7 0 3.5-.4 3.1-1.4-.8-2.1 5.6-2.6 25.5-1.8 3.8.2 5.4.8 8.4 3.6 2.1 1.9 4.1 3.3 4.5 3 .4-.2 1.1.2 1.6.9.4.7 2.7 2.1 5.1 3 2.4 1 5.5 2.9 7 4.2 1.5 1.4 3.5 2.5 4.4 2.5 1 0 1.8.5 1.8 1 0 1.5 3 4.3 6.2 5.9 1.5.8 2.6 1.9 2.5 2.5-.1.6.3 1 .9.9.6-.1 2.4 1.1 3.9 2.7 1.6 1.7 2.5 3 1.9 3-.5 0-1 1.2-1 2.6-.1 1.4-1.2 3.6-2.4 4.9-1.6 1.7-1.8 2.4-.8 2.7.9.3.8 1-.6 2.4-1.9 1.9-1.9 1.9.5 2.3 1.3.1 2.7.8 3.1 1.5.4.6 1.6 1.1 2.7 1.1 1.2 0 2 .2 1.9.5-.1.3.4 1.5 1 2.7.8 1.5 1.8 2 2.9 1.6 1.4-.6 1.4-.3-.3 2-1 1.4-2.6 2.8-3.4 3-1 .3-.8.5.6.6 2.4.1 6.7 3.8 5.9 5.2-.4.5-1.8.9-3.3.9-1.5 0-3.3.4-4.1.9-1.5 1-4.3-.8-3.4-2.2.2-.4 0-.7-.5-.7-1.2 0-3.3 2.5-2.7 3.2.3.2-2.3 1-5.7 1.6-3.4.6-6.5 1.7-6.9 2.3-.5.8-.8.7-1.2-.2-.3-.8-.6-.4-.6.9-.1 1.2-.8 3.4-1.7 4.7-.9 1.4-1.3 2.5-1 2.5 1.2 0-2.7 5.1-4.7 6.1-1.4.8-1.8.8-1.3 0 .4-.6-.4-1.5-1.9-2.1-3.9-1.5-5.5-1.2-5.5.9 0 1.1-.4 2.2-.9 2.5-.5.3-.7 1.5-.4 2.6.3 1.1.2 2.8-.3 3.7-1.3 3-2 15.5-1 17.2.3.4 0 3.4-.6 6.4-1 4.5-.9 7.2.2 13.4.7 4.3 1.3 9.3 1.2 11.1-.1 1.8.2 3.1.7 2.8.5-.3.7.3.4 1.4-.3 1.2 0 2 .7 2 1 0-3.9 6.6-9 12.1-2.3 2.4-5.5 3.9-8.7 3.9-4 0-5.4 1.6-4.2 4.8.6 1.6.6 2.7 0 3.1-1 .7-3.1 5.5-3.1 7.2 0 .5.6.9 1.4.9.9 0 1.2.7.9 1.9-.3 1.4.6 2.3 4.1 4 2.5 1.1 5.1 2.1 5.8 2.1 1.7-.1 5.8-3.5 5.8-4.8 0-.5.7-1.2 1.5-1.6 1.2-.4 1.4 0 .9 1.9-.4 1.6-.2 2.5.6 2.5 2.5 0-.2 1.8-3.7 2.5-4.4.9-13.9.9-15.3 0-.6-.3-1.5-.3-2.2.1-.7.4-4.6.8-8.7.9-4.2.1-10.8.5-14.8 1-6.5.7-7.4.5-10.3-1.5-1.7-1.2-3.7-1.9-4.5-1.6-.8.3-1.9-.3-2.4-1.2-.9-1.5-1-1.5-1.1-.1 0 .9.7 2 1.5 2.3 1.2.4 1.3 1 .6 2.4-.6 1.1-.6 2.4-.1 3.2.6.9.5 1.7-.3 2.2-1.3.8 2.8 4.9 4.7 4.7.6 0 .6-.3-.1-.6-4.6-1.8 3.4-2.7 8.2-.9 3.4 1.3 8 3.9 8.7 5 .5.7.8.6.8-.4.1-1.2.4-1.1 1.5.4 1.5 2 8.5 4.9 8.5 3.6 0-.5-1.3-1.3-3-1.9-3-1-3.8-2.5-2.1-3.5.5-.4 1.1 0 1.4.6.3.9.9.7 2-.7s2.9-2 6.9-2.1c2.9-.2 5.8-.3 6.3-.4 3-.6 4.5.2 4.5 2.3 0 1.3.5 2.8 1.2 3.5.9.9.7 1.3-.7 1.8-1 .4-2 .3-2.2-.2-.2-.6-1.8-.9-3.6-.7-1.7.2-4.7.4-6.4.4-3.7 0-4.6 2.3-1.3 3.2 1.2.3 2 1.4 2 2.7 0 1.1.5 1.8 1 1.5.6-.3 1-.1 1 .4 0 .6-.4 1.1-1 1.1-.9 0 1.3 3 5.3 7.2.9 1 1.4 1.8 1 1.8-2.5.2 6.5 3 9.4 3 1.9 0 4.3.5 5.3 1 1.3.7 2.1.7 2.5 0 1.2-1.9 2.6-1 2 1.1-.6 1.7-.4 2 .6 1.3 2-1.2 3.9-1.4 3.9-.4 0 .5-.5 1.2-1.1 1.6-.8.5-.8.9.1 1.4.7.4.9 1.3.6 1.9-.4.6-1.2.8-1.8.5-.8-.5-.9-.1-.5 1 .5 1.4.3 1.7-.8 1.2-1.8-.6-2 .5-.4 2.1.9.9.7 1.1-.7.7-1.5-.4-2 0-2.1 1.8-.1 1.2-.7 2.4-1.3 2.6-.5.2-.8.8-.4 1.3.3.5-.1.9-.9.9s-1.8.7-2.1 1.6c-.9 2.3-.8 2.6.7 1.8.9-.5.9-.4 0 .6-1 1.1-1.5 1.1-2.8 0-.8-.7-1.5-.8-1.5-.2 0 .5-1.9 1-4.2 1-6.6.1-7 .1-6.3 1.2.3.5-.1 1-.9 1-.9 0-1.6.5-1.6 1.1 0 .7-.9.6-2.4-.4-2-1.3-2.7-1.4-4.9-.2-1.9 1-2.8 1-3.8.1-.9-.8-1-.8-.6 0 1.2 2.1-2.1 2.3-4.6.3-3.1-2.3-3.4-2.4-4-.2-.3 1.3-.5 1.2-.6-.5-.1-1.9-.3-2.1-1.5-1-.8.7-1.2 1.7-.9 2.1.7 1.1-5.4-2.1-9.1-4.7-3.5-2.6-15.6-14.8-15.6-15.8 0-.5-.6-.8-1.4-.8-.8 0-1.6-.5-1.8-1.1-.3-.8-1-.6-2 .5-1.5 1.4-1.5 1.9-.2 4.4 1.9 3.7 1.8 6.3-.2 5.5-.8-.3-1.3-1.1-1-1.8.2-.7-2.5-4.3-6-8.1-3.5-3.7-6.4-6.3-6.4-5.7 0 .7.4 1.4.9 1.7.5.3 2.1 3.5 3.5 7.2 3.6 8.8 14.5 23.4 17.6 23.4.5 0 2.1 1.1 3.6 2.5s3.3 2.4 4 2.1c.7-.3 1.5.2 1.8 1 .9 2.3.8 2.4-1.4 2.4-1.1 0-2 .6-2 1.3 0 1.6 3.2 4.7 4.8 4.7 1.6 0 1.6-3.7 0-4.2-.6-.2-.8-1-.4-1.6.4-.7 1.3-.9 1.9-.5.7.4 2.3.9 3.7 1.1 1.4.2 5.9 1.2 10 2.3 4.1 1.1 11.1 2.9 15.5 4 15.6 3.7 18.5 4.9 22.6 9 4.1 4.1 5 7.5 2.3 8.6-1.5.6-1.5.8.2 2 1.8 1.4 1.8 1.5-.8 3.8-1.6 1.3-2.8 2.8-2.8 3.3 0 .6-1.1 2-2.5 3.3-1.3 1.3-2.5 2.7-2.5 3.1 0 .5 10.8.8 24 .8 19.8 0 24-.2 24-1.4 0-.8.9-2.4 1.9-3.7 1.6-1.9 2.2-2.1 3.2-1.2 1 1 1 1.8.1 3.8L238 373h31.5c17.3 0 31.5-.2 31.5-.5 0-1.3-11.2-5.5-14.5-5.5-4.1 0-6.4-1-11.6-5.2-2.8-2.3-4.4-4.9-7-11.6-1.8-4.8-4.3-11.1-5.6-14-1.2-2.9-2.3-5.7-2.3-6.3 0-.5-1.4-3.9-3-7.6l-3-6.6 1.6-11.1c1.4-9.5 2.3-12.5 6.4-20.7 6.8-13.4 13.3-29 16-38.2l2.3-7.9 3.1.6c2.2.4 4.5-.1 7.5-1.6 4-2.1 4.8-3.2 8.4-11.2 2.1-4.8 4.6-12.5 5.4-17 .8-4.4 2.5-12.6 3.9-18.1 2-8.2 2.2-11 1.5-15.5-.5-3-.7-7.1-.5-9 .7-6.8 2.6-20.7 4.4-33 2-12.8 1.6-22.1-.9-26.8-.6-1.2-1.1-3.6-1.1-5.5s-.7-4-1.6-4.8c-1.5-1.2-1.4-1.4.2-1.9 1.5-.6 1.3-1-1.4-3.8-2.6-2.6-3-3.8-2.6-6.2.5-2.3 0-3.8-2.3-6.7-3.6-4.6-6.3-10-6.3-12.5 0-1-.4-1.8-1-1.8-1.7 0-5-4.4-5-6.7 0-3.1-2.2-7.2-5.4-10.2-1.4-1.4-2.6-2.8-2.6-3.2 0-1.1-17.2-18.2-21.5-21.4-2.2-1.6-7.1-5.9-11-9.6-3.8-3.6-9.3-7.8-12.2-9.3C234.3.1 233.4 0 218 0c-11.8 0-16 .3-16 1.2 0 .9-.3.9-1.2 0-.9-.9-6.3-1.2-18.8-1.1-9.6.1-18.4.3-19.5.5zM134 75.8c0 .5-1.1 1.4-2.5 2-2.9 1.3-3.1 1-.9-1.2 1.7-1.7 3.4-2.1 3.4-.8zm96.7 33.8c-.3.3-1.2.4-1.9.1-.8-.3-.5-.6.6-.6 1.1-.1 1.7.2 1.3.5zm-8.3 46.2c0 1.2.3 1.9.8 1.6.4-.3.8 0 .8.6 0 .8-.9 1-2.5.6-1.8-.5-2.7-.2-3.1.9-.3.8-1 1.3-1.4 1-.4-.3-1 .2-1.4 1-.3.8-1.6 1.5-2.8 1.5-1.3 0-1.8-.4-1.3-.8.6-.4 1.8-1.9 2.8-3.5 1-1.5 2.4-2.7 3.3-2.7.8 0 1.7-.7 2.1-1.5.8-2.2 2.8-1.2 2.7 1.3zM235 154c0 .5-.4 1-.9 1-.6 0-1.3-.5-1.6-1-.3-.6.1-1 .9-1 .9 0 1.6.4 1.6 1zm-5 1c0 1.2-3.5 3.1-4.4 2.3-.8-.9 1.4-3.3 3-3.3.8 0 1.4.4 1.4 1zm4.7 3.4l2.3 2.4-3.5.4c-1.9.2-4-.1-4.6-.7-.9-.7-1-.6-.5.2.5.9.2 1.1-.9.7-1.2-.5-1.3-1-.4-2 .6-.8 1.5-1.1 2-.8.5.3.9-.2.9-1 0-2.3 2.2-1.9 4.7.8zm-20.7 6.8c-.1 2-4.9 7-6 6.3-1.3-.8-.8-3.9.9-5.9 1.6-1.9 5.1-2.1 5.1-.4zm10 3.1c0 2-.4 2.3-3 1.9-3.4-.5-3.8-1.6-1.2-3.1 2.8-1.7 4.2-1.3 4.2 1.2zm-7.8 13.9c-.3 1.4-.2 1.9.6 1.4.7-.4 1.2-.2 1.2.5 0 .6.8.9 2 .6 1.3-.3 2.1.1 2.6 1.5.4 1.5.8 1.7 1.4.8.6-1 1.3-.8 3.1.9 1.2 1.1 2.8 2 3.3 1.9.6-.1 2.8.1 4.9.5 2 .5 4.3.5 4.9.1.7-.5 2.8-.7 4.8-.6 1.9.2 5-.2 6.9-.8 5.3-1.5 6.7.4 6.8 9 .1 5.9-.1 7-1.5 7.1-1.1.1-.7.4.8.9 1.4.4 1.9.8 1.2.9-.7.1-1 .5-.7 1.1.3.5.3 1.5-.1 2.2-.5.8-1 .6-1.6-.8-.6-1.4-.7-1.2-.5 1.2.3 2.6-.2 3.3-2.5 4.3-1.5.7-2.6 1.7-2.2 2.2.3.5-.1 1.2-1 1.5-.8.3-1.3 1.1-1 1.8.5 1.3-3.4 1.5-5.4.2-.7-.4-1.2-.1-1.2.8s.6 1.6 1.3 1.6c.7.1.5.6-.5 1.4-1 .7-1.8 2-1.8 2.8 0 .9-.7 2.1-1.5 2.8-1.2 1-1.3 1.6-.3 2.9.7.9-2.2-1.9-6.4-6.2-4.2-4.3-9.2-9.7-11-12-1.7-2.3-5.4-6.8-8.1-10-2.7-3.1-4.5-5.7-4-5.7 1.5 0 4.5-7.1 3.5-8.4-.5-.6-1.2-3-1.6-5.3-.5-3.5-.4-4.1.9-3.7.8.4 1.5.1 1.5-.5s.4-1.1.9-1.1.7 1 .3 2.2zm-6.4 25.8c2.8 2.6 2.8 3.5-.3 6.6-2 2-2.9 2.3-4.4 1.4-2.2-1.1-3.2-3.6-2.6-6.5.2-1.1.4-2.3.4-2.8.2-1.5 4.8-.6 6.9 1.3zm-33.3 30c.3.5.1 1-.4 1-.6 0-1.1-.5-1.1-1 0-.6.2-1 .4-1 .3 0 .8.4 1.1 1zm70 13.3c-.6 4.4-5.3 13.9-6.5 13.2-.4-.3.5-3.8 2.1-7.7 1.5-4 2.9-9.1 3-11.3l.1-4 .9 3c.5 1.6.7 4.7.4 6.8zm-63 12.7c.3.5.1 1-.4 1-.6 0-1.1-.5-1.1-1 0-.6.2-1 .4-1 .3 0 .8.4 1.1 1zm2.6 3.5c-.9 3-.9 3-.8-.7.1-2 .5-3.4.9-3 .4.4.3 2.1-.1 3.7zM117 304.6c0 .2-.7.4-1.5.4s-1.5-.4-1.5-1c0-.5.7-.7 1.5-.4.8.4 1.5.8 1.5 1zm146.4 42c.3.9.6 2.3.6 3.2-.1 1.2-.5 1-1.5-.8-.8-1.4-1.4-2.8-1.5-3.3 0-1.3 1.8-.7 2.4.9zm-2.9 15.7c1.4 2.6 1.6 4 .8 6.2-1.3 4-2.4 4-5 .2-2-2.9-2.1-3.7-1.1-6.5 1.6-4.1 3-4 5.3.1zm-20.3 1.9c-.7.7-1.2.8-1.2.2 0-1.4 1.2-2.6 1.9-1.9.2.3-.1 1.1-.7 1.7z"/><path d="M139.8 128c-2 .4-5.4.5-7.5.3-2.5-.2-3.3 0-2.4.6 2.1 1.4.3 3.1-3.2 3-3-.2-3-.2-.5-.6 1.8-.3 2.5-.9 2.1-1.9-.7-1.9-3.5-1.8-8.1.3-2 .9-4.1 1.5-4.6 1.4-.5-.1-.6.5-.3 1.3.4.9-.2 1.7-1.4 2.1-1.1.4-1.9.9-1.7 1.1.3.2 1.9-.2 3.6-.8 3.7-1.4 6.4.1 4.4 2.4-.8 1.1.3 1.2 6.1.8 4-.3 7.7-.8 8.2-1.2.6-.3 3.3-.2 6 .3 2.8.6 7.1 1.1 9.7 1.3 3.9.2 4.5 0 3.6-1.1-.9-1.1-.4-1.2 2.7-.8 2 .2 4.6.7 5.6 1 1 .4 2.5.3 3.3-.2 1.2-.7 1.2-1.1-.3-2.8-.9-1.1-3.1-3-4.9-4.3-2.7-1.9-3-1.9-2.5-.5.6 1.6.4 1.6-1.5-.1-2.3-2-9.8-2.8-16.4-1.6zm-18 11.7c.6.2 1.8.2 2.5 0 .6-.3.1-.5-1.3-.5-1.4 0-1.9.2-1.2.5zm27.2 10.7c0 4.3-2.3 5.5-10.3 5.4-3.9-.1-9.2.2-11.7.6-4.2.6-4.4.6-2.6-.9 2-1.5 2-1.5 0-1.5-1 0-3.9.9-6.3 2s-5 2-5.7 2c-2.3 0-2.8 2.9-.9 5 1 1.1 2.3 2 2.8 2s1.5.7 2.2 1.6c.9 1.3 1.6 1.4 3.1.7 2.9-1.5 12.6-2.4 11.8-1.1-.4.6.1.8 1.5.3 1.1-.3 2.1-.3 2.1.2s1.2 1 2.6 1.1c1.4.1 3.3.6 4.2 1.2 1.4.8 1.3.9-.7 1-2.4 0-2.4 0-.5 1.5 1.6 1.2 1.7 1.4.2 1.5-.9 0-1.8.5-2 1.1-.2.6-2.2 1.2-4.3 1.4-2.2.2-5.1.7-6.5 1.3-2.5 1-2.4 1 1 1.5 10.8 1.8 23.7 2.2 28.2.9 5.1-1.4 12.6-9.2 8.8-9.2-.5 0-1-1-1-2.1 0-1.9.2-2 1.7-.8s1.6 1.2.9-.6c-.5-1.1-.8-2.7-.8-3.5.1-3.5-1.1-7-2.3-7-.7 0-1.5-.3-1.7-.8-.1-.4-2.1-2.2-4.3-4-5-4-9.5-4.4-9.5-.8zm-6 10.6c0 .5-.5 1-1.1 1-.5 0-.7-.5-.4-1 .3-.6.8-1 1.1-1 .2 0 .4.4.4 1zm-7.6 1.5c.6 1.7.4 1.8-1.8.9-2-.8-2.1-2.4-.2-2.4.8 0 1.6.7 2 1.5zm28.6 8.9c0 .2-.7.6-1.5 1-.8.3-1.5.1-1.5-.4 0-.6.7-1 1.5-1s1.5.2 1.5.4z"/><path d="M120.4 170.8c.9 1.5 4.8 2.3 4.3.9-.2-.7-1.4-1.4-2.6-1.5-1.3-.2-2.1.1-1.7.6zm23 40.8c-2.1 1.5-4.4 3.4-5.1 4.3-.9 1.1-1.2 1.2-1.3.3 0-.7-.5-1-1-.7-.6.4-.8 1-.5 1.5.3.5-1.6 3-4.2 5.6-2.6 2.5-4.7 5.2-4.5 5.9.1.8-.4 3.1-1.3 5.1-2.4 5.7-1.8 7.1 1.3 2.6 3.1-4.7 5.9-7.7 13.1-14.6 2.8-2.7 5.2-5.2 5.2-5.7.3-1.9.5-2.5 1.7-4.7 1.6-2.8 1.3-2.8-3.4.4zm8.6 6.8c0 2.7 6.5 8.4 10.5 9.2 4.6.8 5.5 0 2-1.9-1.9-.9-2.3-1.5-1.4-1.9 2.3-.8 7.9 1.1 7.9 2.7 0 2 .7 1.9 3.1-.4l2-1.9-2.8-2c-4.7-3.3-7-3.6-10.9-1.3-3.9 2.3-6.1 1.8-8.8-2.1-1.4-2-1.6-2-1.6-.4zm15.1 11.5c-.8.6-.9 1.1-.3 1.5.6.3 1.4.1 1.7-.5.9-1.4.2-2-1.4-1zM99 256.4c0 .8.5 1.8 1 2.1.6.3 1-.1 1-.9s-.4-1.8-1-2.1c-.5-.3-1 .1-1 .9zm.4 61.1c-1.4 2.2-1.5 3-.4 5s.9 3-1 7c-1.9 3.8-2 5-1.1 6.8.7 1.2 1.9 3.5 2.7 5 .9 1.6 1.9 5.2 2.3 8 .7 5.4 2.5 9.7 4 9.7.8 0 5.5 8.8 6.5 12.2.5 1.6 1.8 1.8 9.8 1.8 8.4-.1 9.1-.2 7.4-1.5-1.3-1-2.2-1.1-2.6-.5-.9 1.5-3.5-1.8-3.5-4.4 0-1.2-.5-2.1-1.2-2.1-1.6 0-2.6-1.2-2.8-3.3-.1-.9-2.5-4.9-5.3-8.7-6.4-8.8-10-18.1-10.3-26.6-.4-11.3-1.4-13.2-4.5-8.4zm4.3 23.1c1.5 3.3.5 5.4-1.4 2.9-1.4-2-1.8-5.5-.5-5.5.4 0 1.2 1.2 1.9 2.6zm10.6 18.4c1 1.6 1.4 3 .8 3-.5 0-1.6-1.4-2.5-3-.8-1.7-1.1-3-.7-3 .4 0 1.5 1.3 2.4 3zm56.5-42.3c.7.3 1.6.2 1.9-.1.4-.3-.2-.6-1.3-.5-1.1 0-1.4.3-.6.6zm-84 32.5c-1.2 5.3-1.3 7.7-.5 8.6.6.8 1.8 4.4 2.7 8l1.6 6.7 4.2.3c2.6.2 4.2-.1 4.2-.8 0-2-4.2-11-5.2-11-1.7 0-4-7.3-3.5-11.2.5-4-.1-7.8-1.2-7.8-.4 0-1.5 3.3-2.3 7.2zm-10.2 18.3c-2.2 5.1-2.1 5.5 1.4 5.5 3 0 3.1-.1 2.4-3.8-1-5.4-2.1-5.9-3.8-1.7zm-9.2-.7c-4.9 2.7-10.1 6.5-7.9 5.8 1-.4 4-1 6.5-1.3 5.2-.7 7-1.8 7-4.4 0-2.3-1.5-2.3-5.6-.1z"/></svg>