<?xml version="1.0" standalone="no"?>
<!DOCTYPE svg PUBLIC "-//W3C//DTD SVG 20010904//EN"
 "http://www.w3.org/TR/2001/REC-SVG-20010904/DTD/svg10.dtd">
<svg version="1.0" xmlns="http://www.w3.org/2000/svg"
 width="373.000000pt" height="373.000000pt" viewBox="0 0 373.000000 373.000000"
 preserveAspectRatio="xMidYMid meet">
<metadata>
Created by potrace 1.11, written by Peter Selinger 2001-2013
</metadata>
<g transform="translate(0.000000,373.000000) scale(0.100000,-0.100000)"
fill="#000000" stroke="none">
<path d="M1625 3724 c-67 -14 -119 -31 -190 -59 -44 -18 -102 -39 -130 -47
l-50 -14 3 -41 c3 -34 0 -42 -16 -47 -11 -4 -23 -13 -26 -21 -3 -9 -19 -15
-39 -15 -25 0 -42 -9 -71 -39 -27 -28 -34 -41 -25 -46 9 -6 7 -11 -6 -22 -11
-7 -25 -13 -33 -13 -23 0 -102 -69 -102 -89 0 -23 -26 -75 -46 -92 -25 -21
-52 -81 -93 -211 -46 -146 -91 -368 -91 -450 0 -36 -5 -60 -36 -193 -31 -129
-33 -336 -2 -282 5 10 9 35 7 55 -1 20 -1 51 0 67 2 27 3 28 14 12 7 -10 26
-33 43 -52 38 -42 45 -70 53 -205 5 -93 8 -105 24 -102 9 2 17 -2 17 -8 0 -5
4 -10 8 -10 4 0 9 33 10 73 2 39 9 108 17 152 8 44 21 134 29 200 25 201 89
405 134 422 7 3 10 13 7 23 -4 11 1 24 12 32 20 14 45 62 48 91 2 25 65 87 95
94 14 3 36 13 50 22 14 9 43 23 65 30 22 8 63 31 92 53 29 21 56 38 61 38 5 0
15 6 22 14 6 8 18 12 26 9 8 -3 14 0 14 6 0 6 16 11 36 11 27 0 35 4 31 14 -8
21 56 26 255 18 38 -2 54 -8 84 -36 21 -19 41 -33 45 -30 4 2 11 -2 16 -9 4
-7 27 -21 51 -30 24 -10 55 -29 70 -42 15 -14 35 -25 44 -25 10 0 18 -5 18
-10 0 -15 30 -43 62 -59 15 -8 26 -19 25 -25 -1 -6 3 -10 9 -9 6 1 24 -11 39
-27 16 -17 25 -30 19 -30 -5 0 -10 -12 -10 -26 -1 -14 -12 -36 -24 -49 -16
-17 -18 -24 -8 -27 9 -3 8 -10 -6 -24 -19 -19 -19 -19 5 -23 13 -1 27 -8 31
-15 4 -6 16 -11 27 -11 12 0 20 -2 19 -5 -1 -3 4 -15 10 -27 8 -15 18 -20 29
-16 14 6 14 3 -3 -20 -10 -14 -26 -28 -34 -30 -10 -3 -8 -5 6 -6 24 -1 67 -38
59 -52 -4 -5 -18 -9 -33 -9 -15 0 -33 -4 -41 -9 -15 -10 -43 8 -34 22 2 4 0 7
-5 7 -12 0 -33 -25 -27 -32 3 -2 -23 -10 -57 -16 -34 -6 -65 -17 -69 -23 -5
-8 -8 -7 -12 2 -3 8 -6 4 -6 -9 -1 -12 -8 -34 -17 -47 -9 -14 -13 -25 -10 -25
12 0 -27 -51 -47 -61 -14 -8 -18 -8 -13 0 4 6 -4 15 -19 21 -39 15 -55 12 -55
-9 0 -11 -4 -22 -9 -25 -5 -3 -7 -15 -4 -26 3 -11 2 -28 -3 -37 -13 -30 -20
-155 -10 -172 3 -4 0 -34 -6 -64 -10 -45 -9 -72 2 -134 7 -43 13 -93 12 -111
-1 -18 2 -31 7 -28 5 3 7 -3 4 -14 -3 -12 0 -20 7 -20 10 0 -39 -66 -90 -121
-23 -24 -55 -39 -87 -39 -40 0 -54 -16 -42 -48 6 -16 6 -27 0 -31 -10 -7 -31
-55 -31 -72 0 -5 6 -9 14 -9 9 0 12 -7 9 -19 -3 -14 6 -23 41 -40 25 -11 51
-21 58 -21 17 1 58 35 58 48 0 5 7 12 15 16 12 4 14 0 9 -19 -4 -16 -2 -25 6
-25 25 0 -2 -18 -37 -25 -44 -9 -139 -9 -153 0 -6 3 -15 3 -22 -1 -7 -4 -46
-8 -87 -9 -42 -1 -108 -5 -148 -10 -65 -7 -74 -5 -103 15 -17 12 -37 19 -45
16 -8 -3 -19 3 -24 12 -9 15 -10 15 -11 1 0 -9 7 -20 15 -23 12 -4 13 -10 6
-24 -6 -11 -6 -24 -1 -32 6 -9 5 -17 -3 -22 -13 -8 28 -49 47 -47 6 0 6 3 -1
6 -46 18 34 27 82 9 34 -13 80 -39 87 -50 5 -7 8 -6 8 4 1 12 4 11 15 -4 15
-20 85 -49 85 -36 0 5 -13 13 -30 19 -30 10 -38 25 -21 35 5 4 11 0 14 -6 3
-9 9 -7 20 7 11 14 29 20 69 21 29 2 58 3 63 4 30 6 45 -2 45 -23 0 -13 5 -28
12 -35 9 -9 7 -13 -7 -18 -10 -4 -20 -3 -22 2 -2 6 -18 9 -36 7 -17 -2 -47 -4
-64 -4 -37 0 -46 -23 -13 -32 12 -3 20 -14 20 -27 0 -11 5 -18 10 -15 6 3 10
1 10 -4 0 -6 -4 -11 -10 -11 -9 0 13 -30 53 -72 9 -10 14 -18 10 -18 -25 -2
65 -30 94 -30 19 0 43 -5 53 -10 13 -7 21 -7 25 0 12 19 26 10 20 -11 -6 -17
-4 -20 6 -13 20 12 39 14 39 4 0 -5 -5 -12 -11 -16 -8 -5 -8 -9 1 -14 7 -4 9
-13 6 -19 -4 -6 -12 -8 -18 -5 -8 5 -9 1 -5 -10 5 -14 3 -17 -8 -12 -18 6 -20
-5 -4 -21 9 -9 7 -11 -7 -7 -15 4 -20 0 -21 -18 -1 -12 -7 -24 -13 -26 -5 -2
-8 -8 -4 -13 3 -5 -1 -9 -9 -9 -8 0 -18 -7 -21 -16 -9 -23 -8 -26 7 -18 9 5 9
4 0 -6 -10 -11 -15 -11 -28 0 -8 7 -15 8 -15 2 0 -5 -19 -10 -42 -10 -66 -1
-70 -1 -63 -12 3 -5 -1 -10 -9 -10 -9 0 -16 -5 -16 -11 0 -7 -9 -6 -24 4 -20
13 -27 14 -49 2 -19 -10 -28 -10 -38 -1 -9 8 -10 8 -6 0 12 -21 -21 -23 -46
-3 -31 23 -34 24 -40 2 -3 -13 -5 -12 -6 5 -1 19 -3 21 -15 10 -8 -7 -12 -17
-9 -21 7 -11 -54 21 -91 47 -35 26 -156 148 -156 158 0 5 -6 8 -14 8 -8 0 -16
5 -18 11 -3 8 -10 6 -20 -5 -15 -14 -15 -19 -2 -44 19 -37 18 -63 -2 -55 -8 3
-13 11 -10 18 2 7 -25 43 -60 81 -35 37 -64 63 -64 57 0 -7 4 -14 9 -17 5 -3
21 -35 35 -72 36 -88 145 -234 176 -234 5 0 21 -11 36 -25 15 -14 33 -24 40
-21 7 3 15 -2 18 -10 9 -23 8 -24 -14 -24 -11 0 -20 -6 -20 -13 0 -16 32 -47
48 -47 16 0 16 37 0 42 -6 2 -8 10 -4 16 4 7 13 9 19 5 7 -4 23 -9 37 -11 14
-2 59 -12 100 -23 41 -11 111 -29 155 -40 156 -37 185 -49 226 -90 41 -41 50
-75 23 -86 -15 -6 -15 -8 2 -20 18 -14 18 -15 -8 -38 -16 -13 -28 -28 -28 -33
0 -6 -11 -20 -25 -33 -13 -13 -25 -27 -25 -31 0 -5 108 -8 240 -8 198 0 240 2
240 14 0 8 9 24 19 37 16 19 22 21 32 12 10 -10 10 -18 1 -38 l-12 -25 315 0
c173 0 315 2 315 5 0 13 -112 55 -145 55 -41 0 -64 10 -116 52 -28 23 -44 49
-70 116 -18 48 -43 111 -56 140 -12 29 -23 57 -23 63 0 5 -14 39 -30 76 l-30
66 16 111 c14 95 23 125 64 207 68 134 133 290 160 382 l23 79 31 -6 c22 -4
45 1 75 16 40 21 48 32 84 112 21 48 46 125 54 170 8 44 25 126 39 181 20 82
22 110 15 155 -5 30 -7 71 -5 90 7 68 26 207 44 330 20 128 16 221 -9 268 -6
12 -11 36 -11 55 0 19 -7 40 -16 48 -15 12 -14 14 2 19 15 6 13 10 -14 38 -26
26 -30 38 -26 62 5 23 0 38 -23 67 -36 46 -63 100 -63 125 0 10 -4 18 -10 18
-17 0 -50 44 -50 67 0 31 -22 72 -54 102 -14 14 -26 28 -26 32 0 11 -172 182
-215 214 -22 16 -71 59 -110 96 -38 36 -93 78 -122 93 -50 25 -59 26 -213 26
-118 0 -160 -3 -160 -12 0 -9 -3 -9 -12 0 -9 9 -63 12 -188 11 -96 -1 -184 -3
-195 -5z m-285 -752 c0 -5 -11 -14 -25 -20 -29 -13 -31 -10 -9 12 17 17 34 21
34 8z m967 -338 c-3 -3 -12 -4 -19 -1 -8 3 -5 6 6 6 11 1 17 -2 13 -5z m-83
-462 c0 -12 3 -19 8 -16 4 3 8 0 8 -6 0 -8 -9 -10 -25 -6 -18 5 -27 2 -31 -9
-3 -8 -10 -13 -14 -10 -4 3 -10 -2 -14 -10 -3 -8 -16 -15 -28 -15 -13 0 -18 4
-13 8 6 4 18 19 28 35 10 15 24 27 33 27 8 0 17 7 21 15 8 22 28 12 27 -13z
m126 18 c0 -5 -4 -10 -9 -10 -6 0 -13 5 -16 10 -3 6 1 10 9 10 9 0 16 -4 16
-10z m-50 -10 c0 -12 -35 -31 -44 -23 -8 9 14 33 30 33 8 0 14 -4 14 -10z m47
-34 l23 -24 -35 -4 c-19 -2 -40 1 -46 7 -9 7 -10 6 -5 -2 5 -9 2 -11 -9 -7
-12 5 -13 10 -4 20 6 8 15 11 20 8 5 -3 9 2 9 10 0 23 22 19 47 -8z m-207 -68
c-1 -20 -49 -70 -60 -63 -13 8 -8 39 9 59 16 19 51 21 51 4z m100 -31 c0 -20
-4 -23 -30 -19 -34 5 -38 16 -12 31 28 17 42 13 42 -12z m-78 -139 c-3 -14 -2
-19 6 -14 7 4 12 2 12 -5 0 -6 8 -9 20 -6 13 3 21 -1 26 -15 4 -15 8 -17 14
-8 6 10 13 8 31 -9 12 -11 28 -20 33 -19 6 1 28 -1 49 -5 20 -5 43 -5 49 -1 7
5 28 7 48 6 19 -2 50 2 69 8 53 15 67 -4 68 -90 1 -59 -1 -70 -15 -71 -11 -1
-7 -4 8 -9 14 -4 19 -8 12 -9 -7 -1 -10 -5 -7 -11 3 -5 3 -15 -1 -22 -5 -8
-10 -6 -16 8 -6 14 -7 12 -5 -12 3 -26 -2 -33 -25 -43 -15 -7 -26 -17 -22 -22
3 -5 -1 -12 -10 -15 -8 -3 -13 -11 -10 -18 5 -13 -34 -15 -54 -2 -7 4 -12 1
-12 -8 0 -9 6 -16 13 -16 7 -1 5 -6 -5 -14 -10 -7 -18 -20 -18 -28 0 -9 -7
-21 -15 -28 -12 -10 -13 -16 -3 -29 7 -9 -22 19 -64 62 -42 43 -92 97 -110
120 -17 23 -54 68 -81 100 -27 31 -45 57 -40 57 15 0 45 71 35 84 -5 6 -12 30
-16 53 -5 35 -4 41 9 37 8 -4 15 -1 15 5 0 6 4 11 9 11 5 0 7 -10 3 -22z m-64
-258 c28 -26 28 -35 -3 -66 -20 -20 -29 -23 -44 -14 -22 11 -32 36 -26 65 2
11 4 23 4 28 2 15 48 6 69 -13z m-333 -300 c3 -5 1 -10 -4 -10 -6 0 -11 5 -11
10 0 6 2 10 4 10 3 0 8 -4 11 -10z m700 -133 c-6 -44 -53 -139 -65 -132 -4 3
5 38 21 77 15 40 29 91 30 113 l1 40 9 -30 c5 -16 7 -47 4 -68z m-630 -127 c3
-5 1 -10 -4 -10 -6 0 -11 5 -11 10 0 6 2 10 4 10 3 0 8 -4 11 -10z m26 -35
c-9 -30 -9 -30 -8 7 1 20 5 34 9 30 4 -4 3 -21 -1 -37z m-691 -371 c0 -2 -7
-4 -15 -4 -8 0 -15 4 -15 10 0 5 7 7 15 4 8 -4 15 -8 15 -10z m1464 -420 c3
-9 6 -23 6 -32 -1 -12 -5 -10 -15 8 -8 14 -14 28 -15 33 0 13 18 7 24 -9z
m-29 -157 c14 -26 16 -40 8 -62 -13 -40 -24 -40 -50 -2 -20 29 -21 37 -11 65
16 41 30 40 53 -1z m-203 -19 c-7 -7 -12 -8 -12 -2 0 14 12 26 19 19 2 -3 -1
-11 -7 -17z"/>
<path d="M1398 2450 c-20 -4 -54 -5 -75 -3 -25 2 -33 0 -24 -6 21 -14 3 -31
-32 -30 -30 2 -30 2 -5 6 18 3 25 9 21 19 -7 19 -35 18 -81 -3 -20 -9 -41 -15
-46 -14 -5 1 -6 -5 -3 -13 4 -9 -2 -17 -14 -21 -11 -4 -19 -9 -17 -11 3 -2 19
2 36 8 37 14 64 -1 44 -24 -8 -11 3 -12 61 -8 40 3 77 8 82 12 6 3 33 2 60 -3
28 -6 71 -11 97 -13 39 -2 45 0 36 11 -9 11 -4 12 27 8 20 -2 46 -7 56 -10 10
-4 25 -3 33 2 12 7 12 11 -3 28 -9 11 -31 30 -49 43 -27 19 -30 19 -25 5 6
-16 4 -16 -15 1 -23 20 -98 28 -164 16z"/>
<path d="M1218 2333 c6 -2 18 -2 25 0 6 3 1 5 -13 5 -14 0 -19 -2 -12 -5z"/>
<path d="M1490 2226 c0 -43 -23 -55 -103 -54 -39 1 -92 -2 -117 -6 -42 -6 -44
-6 -26 9 20 15 20 15 0 15 -10 0 -39 -9 -63 -20 -24 -11 -50 -20 -57 -20 -23
0 -28 -29 -9 -50 10 -11 23 -20 28 -20 5 0 15 -7 22 -16 9 -13 16 -14 31 -7
29 15 126 24 118 11 -4 -6 1 -8 15 -3 11 3 21 3 21 -2 0 -5 12 -10 26 -11 14
-1 33 -6 42 -12 14 -8 13 -9 -7 -10 -24 0 -24 0 -5 -15 16 -12 17 -14 2 -15
-9 0 -18 -5 -20 -11 -2 -6 -22 -12 -43 -14 -22 -2 -51 -7 -65 -13 -25 -10 -24
-10 10 -15 108 -18 237 -22 282 -9 51 14 126 92 88 92 -5 0 -10 10 -10 21 0
19 2 20 17 8 15 -12 16 -12 9 6 -5 11 -8 27 -8 35 1 35 -11 70 -23 70 -7 0
-15 3 -17 8 -1 4 -21 22 -43 40 -50 40 -95 44 -95 8z m-60 -106 c0 -5 -5 -10
-11 -10 -5 0 -7 5 -4 10 3 6 8 10 11 10 2 0 4 -4 4 -10z m-76 -15 c6 -17 4
-18 -18 -9 -20 8 -21 24 -2 24 8 0 16 -7 20 -15z m286 -89 c0 -2 -7 -6 -15
-10 -8 -3 -15 -1 -15 4 0 6 7 10 15 10 8 0 15 -2 15 -4z"/>
<path d="M1204 2022 c9 -15 48 -23 43 -9 -2 7 -14 14 -26 15 -13 2 -21 -1 -17
-6z"/>
<path d="M1434 1614 c-21 -15 -44 -34 -51 -43 -9 -11 -12 -12 -13 -3 0 7 -5
10 -10 7 -6 -4 -8 -10 -5 -15 3 -5 -16 -30 -42 -56 -26 -25 -47 -52 -45 -59 1
-8 -4 -31 -13 -51 -24 -57 -18 -71 13 -26 31 47 59 77 131 146 28 27 52 52 52
57 3 19 5 25 17 47 16 28 13 28 -34 -4z"/>
<path d="M1520 1546 c0 -27 65 -84 105 -92 46 -8 55 0 20 19 -19 9 -23 15 -14
19 23 8 79 -11 79 -27 0 -20 7 -19 31 4 l20 19 -28 20 c-47 33 -70 36 -109 13
-39 -23 -61 -18 -88 21 -14 20 -16 20 -16 4z"/>
<path d="M1671 1431 c-8 -6 -9 -11 -3 -15 6 -3 14 -1 17 5 9 14 2 20 -14 10z"/>
<path d="M990 1166 c0 -8 5 -18 10 -21 6 -3 10 1 10 9 0 8 -4 18 -10 21 -5 3
-10 -1 -10 -9z"/>
<path d="M994 555 c-14 -22 -15 -30 -4 -50 11 -20 9 -30 -10 -70 -19 -38 -20
-50 -11 -68 7 -12 19 -35 27 -50 9 -16 19 -52 23 -80 7 -54 25 -97 40 -97 8 0
55 -88 65 -122 5 -16 18 -18 98 -18 84 1 91 2 74 15 -13 10 -22 11 -26 5 -9
-15 -35 18 -35 44 0 12 -5 21 -12 21 -16 0 -26 12 -28 33 -1 9 -25 49 -53 87
-64 88 -100 181 -103 266 -4 113 -14 132 -45 84z m43 -231 c15 -33 5 -54 -14
-29 -14 20 -18 55 -5 55 4 0 12 -12 19 -26z m106 -184 c10 -16 14 -30 8 -30
-5 0 -16 14 -25 30 -8 17 -11 30 -7 30 4 0 15 -13 24 -30z"/>
<path d="M1708 563 c7 -3 16 -2 19 1 4 3 -2 6 -13 5 -11 0 -14 -3 -6 -6z"/>
<path d="M868 238 c-12 -53 -13 -77 -5 -86 6 -8 18 -44 27 -80 l16 -67 42 -3
c26 -2 42 1 42 8 0 20 -42 110 -52 110 -17 0 -40 73 -35 112 5 40 -1 78 -12
78 -4 0 -15 -33 -23 -72z"/>
<path d="M766 55 c-22 -51 -21 -55 14 -55 30 0 31 1 24 38 -10 54 -21 59 -38
17z"/>
<path d="M674 62 c-49 -27 -101 -65 -79 -58 10 4 40 10 65 13 52 7 70 18 70
44 0 23 -15 23 -56 1z"/>
</g>
</svg>
